HIERARCHY
ROOT root
{
	OFFSET	0	13.1	24.9
	CHANNELS 6  Xposition Yposition Zposition Xrotation Yrotation Zrotation
	JOINT spine_1
	{
		OFFSET	0	9.99999	0
		CHANNELS 3  Xrotation Yrotation Zrotation
		JOINT spine_2
		{
			OFFSET	0	112	-10
			CHANNELS 3  Xrotation Yrotation Zrotation
			JOINT spine_3
			{
				OFFSET	0	206.5	19.3
				CHANNELS 3  Xrotation Yrotation Zrotation
				JOINT spine_4
				{
					OFFSET	0	110.4	14.6
					CHANNELS 3  Xrotation Yrotation Zrotation
					JOINT neck_1
					{
						OFFSET	0	71.8	-50.3
						CHANNELS 3  Xrotation Yrotation Zrotation
						JOINT neck_2
						{
							OFFSET	0	86.2	-25.8
							CHANNELS 3  Xrotation Yrotation Zrotation
							JOINT head_ee
							{
								OFFSET	0	179.8	-8.7
								CHANNELS 3  Xrotation Yrotation Zrotation
								End Site
								{
									OFFSET	1	0	0
								}
							}
						}
					}
					JOINT left_clavicle
					{
						OFFSET	-43.2	22.4	-70.8
						CHANNELS 3  Xrotation Yrotation Zrotation
						JOINT left_shoulder
						{
							OFFSET	-93.9	-5.79999	48.7
							CHANNELS 3  Xrotation Yrotation Zrotation
							JOINT left_elbow
							{
								OFFSET	-291.4	-30.8	15.2
								CHANNELS 3  Xrotation Yrotation Zrotation
								JOINT left_lowarm_twist
								{
									OFFSET	-110.7	-3.89999	13.6
									CHANNELS 3  Xrotation Yrotation Zrotation
									JOINT left_hand
									{
										OFFSET	-110.7	-3.89999	13.6
										CHANNELS 3  Xrotation Yrotation Zrotation
										JOINT left_ee
										{
											OFFSET	-80.8	-5.10001	12.1
											CHANNELS 3  Xrotation Yrotation Zrotation
											End Site
											{
												OFFSET	1	0	0
											}
										}
									}
								}
							}
						}
					}
					JOINT right_clavicle
					{
						OFFSET	43.2	22.4	-70.8
						CHANNELS 3  Xrotation Yrotation Zrotation
						JOINT right_shoulder
						{
							OFFSET	93.9	-5.79999	48.7
							CHANNELS 3  Xrotation Yrotation Zrotation
							JOINT right_elbow
							{
								OFFSET	291.4	-30.8	15.2
								CHANNELS 3  Xrotation Yrotation Zrotation
								JOINT right_lowarm_twist
								{
									OFFSET	110.7	-3.89999	13.6
									CHANNELS 3  Xrotation Yrotation Zrotation
									JOINT right_hand
									{
										OFFSET	110.7	-3.89999	13.6
										CHANNELS 3  Xrotation Yrotation Zrotation
										JOINT right_ee
										{
											OFFSET	80.8	-5.10001	12.1
											CHANNELS 3  Xrotation Yrotation Zrotation
											End Site
											{
												OFFSET	1	0	0
											}
										}
									}
								}
							}
						}
					}
				}
			}
		}
	}
	JOINT left_hip
	{
		OFFSET	-82.8	-127.5	0.300001
		CHANNELS 3  Xrotation Yrotation Zrotation
		JOINT left_knee
		{
			OFFSET	-28.2	-396.7	2.2
			CHANNELS 3  Xrotation Yrotation Zrotation
			JOINT left_ankle
			{
				OFFSET	-11.7	-411.3	35.4
				CHANNELS 3  Xrotation Yrotation Zrotation
				JOINT left_toes
				{
					OFFSET	0	-60	-88.6
					CHANNELS 3  Xrotation Yrotation Zrotation
					JOINT left_foot_ee
					{
						OFFSET	-22.5	-16.5	-42.2
						CHANNELS 3  Xrotation Yrotation Zrotation
						End Site
						{
							OFFSET	1	0	0
						}
					}
				}
			}
		}
	}
	JOINT right_hip
	{
		OFFSET	82.8	-127.5	0.300001
		CHANNELS 3  Xrotation Yrotation Zrotation
		JOINT right_knee
		{
			OFFSET	28.2	-396.7	2.2
			CHANNELS 3  Xrotation Yrotation Zrotation
			JOINT right_ankle
			{
				OFFSET	11.7	-411.3	35.4
				CHANNELS 3  Xrotation Yrotation Zrotation
				JOINT right_toes
				{
					OFFSET	0	-60	-88.6
					CHANNELS 3  Xrotation Yrotation Zrotation
					JOINT right_foot_ee
					{
						OFFSET	22.5	-16.5	-42.2
						CHANNELS 3  Xrotation Yrotation Zrotation
						End Site
						{
							OFFSET	1	0	0
						}
					}
				}
			}
		}
	}
}
MOTION
Frames: 14
Frame Time: 0.02
3035.75992301 690.073 -1968.74177483 -7.47669111297 15.0000722951 1.80686720012 3.2351 -0.110557 0.639867 3.23532 -0.151049 0.631535 3.23356 -0.246938 0.600563 3.23308 -0.148993 0.632023 -2.59293 4.1707 0.224167 -2.56852 7.38448 0.815348 -0.0 0.0 -0.0 9.52601 1.64803 18.604 -2.61291 -17.1788 56.659 0.859248 -23.0566 0.175261 27.8051 0.128962 -3.51488 -0.20869 -0.725278 -1.70228 -0.0 0.0 -0.0 10.8999 4.08707 -21.7278 -32.0201 10.8641 -61.4665 0.576333 15.9341 -0.0806611 34.7219 0.103565 4.36716 0.798585 8.29671 -1.86987 0.0 0.0 0.0 23.8091 17.4108 -1.58711 -24.417 0.21712 3.71243 10.9235 -14.5985 -1.67403 15.9726 -0.0 -0.0 -0.0 0.0 -0.0 37.6455 19.6892 -6.35739 -77.9791 4.41969 -10.1744 10.5023 17.6867 1.65131 26.8297 -0.0 -0.0 0.0 0.0 0.0 
3005.0137899 691.057 -1973.06992975 -7.06341969799 18.5557618613 1.94979729927 3.24537 -0.0172178 0.849331 3.24577 -0.0712261 0.846515 3.24455 -0.201179 0.825342 3.24361 -0.0683112 0.846755 -3.20224 3.88896 0.132935 -3.18322 6.97257 0.712233 -0.0 0.0 -0.0 10.0358 -0.346348 19.7455 -1.81807 -17.3191 55.3763 0.914831 -24.3788 0.19762 27.7554 0.130256 -3.50867 -0.200906 -1.90733 -2.15372 -0.0 0.0 -0.0 10.8283 1.03348 -21.4378 -33.1693 12.5214 -60.0101 0.45836 12.7928 -0.0513844 35.0835 0.118536 4.41088 0.536444 8.25898 -0.115715 0.0 0.0 0.0 22.2144 19.0174 -0.782937 -24.904 0.205289 3.78624 12.0873 -15.713 -1.85868 13.4244 -0.0 -0.0 -0.0 0.0 -0.0 42.8454 18.1323 -6.22914 -83.5706 5.20317 -10.5373 9.34308 20.7649 1.51707 26.4627 -0.0 -0.0 0.0 0.0 0.0 
2970.51761601 689.761 -1984.22875021 -7.98093078557 21.499735401 2.03864679525 3.4057 0.0518216 0.955555 3.4062 -0.00908501 0.956916 3.40583 -0.154181 0.944458 3.40459 -0.00309394 0.956954 -3.37589 3.47756 -0.351688 -3.35787 6.60582 0.15741 -0.0 0.0 -0.0 10.1063 -1.86289 19.9578 -0.500219 -17.6361 53.6644 1.00589 -26.486 0.236732 27.7205 0.131163 -3.50431 -0.188635 -2.84085 -2.46943 -0.0 0.0 -0.0 10.5571 -1.51258 -20.7159 -34.2411 13.1663 -59.1326 0.366956 10.3029 -0.0330822 35.2858 0.127032 4.43531 0.292353 8.02923 1.43463 0.0 0.0 0.0 20.7897 20.2182 -0.449827 -25.2811 0.195699 3.84331 12.9778 -16.1294 -1.9943 11.723 -0.0 -0.0 -0.0 0.0 -0.0 47.2165 17.6162 -3.26007 -84.4709 5.33244 -10.5885 8.52252 23.3327 1.42472 25.7203 -0.0 -0.0 0.0 0.0 0.0 
2959.87037077 689.761 -1976.98414928 -8.09425227415 23.4398579704 2.33510443728 3.4057 0.0518216 0.955555 3.4062 -0.00908501 0.956916 3.40583 -0.154181 0.944458 3.40459 -0.00309394 0.956954 -3.37589 3.47756 -0.351688 -3.35787 6.60582 0.15741 -0.0 0.0 -0.0 10.1063 -1.86289 19.9578 -0.500219 -17.6361 53.6644 1.00589 -26.486 0.236732 27.7205 0.131163 -3.50431 -0.188635 -2.84085 -2.46943 -0.0 0.0 -0.0 10.5571 -1.51258 -20.7159 -34.2411 13.1663 -59.1326 0.366956 10.3029 -0.0330822 35.2858 0.127032 4.43531 0.292353 8.02923 1.43463 0.0 0.0 0.0 20.7897 20.2182 -0.449827 -25.2811 0.195699 3.84331 12.9778 -16.1294 -1.9943 11.723 -0.0 -0.0 -0.0 0.0 -0.0 47.2165 17.6162 -3.26007 -84.4709 5.33244 -10.5885 8.52252 23.3327 1.42472 25.7203 -0.0 -0.0 0.0 0.0 0.0 
2923.97940376 692.771 -1977.35857604 -11.0083831529 28.6564387581 4.46845420002 3.50424 0.271989 1.09647 3.50489 0.201672 1.11155 3.50853 0.0327299 1.12922 3.50681 0.210647 1.10988 -3.09833 2.30321 -0.669509 -3.08657 4.70837 -0.358793 -0.0 0.0 -0.0 9.34853 -3.57189 18.4173 3.55909 -20.051 52.3968 1.57526 -37.9634 0.541872 24.8065 0.19747 -3.138 -0.00191167 -6.66753 -2.84226 -0.0 0.0 -0.0 10.2781 -2.89649 -20.0494 -33.0528 10.9633 -60.1482 0.320914 9.03299 -0.0253495 37.6807 0.234156 4.72213 -0.575814 2.11704 4.76367 0.0 0.0 0.0 13.6096 21.174 4.10593 -10.0231 0.281153 1.51057 5.07343 -16.5852 -0.806682 7.85359 -0.0 -0.0 -0.0 0.0 -0.0 58.929 19.1074 -9.88648 -70.7021 3.45941 -9.59112 -7.4963 9.79189 -1.17375 25.5871 -0.0 -0.0 0.0 0.0 0.0 
2915.8093168 692.771 -1970.46232587 -11.1750334337 30.1643525848 4.80779127911 3.50424 0.271989 1.09647 3.50489 0.201672 1.11155 3.50853 0.0327299 1.12922 3.50681 0.210647 1.10988 -3.09833 2.30321 -0.669509 -3.08657 4.70837 -0.358793 -0.0 0.0 -0.0 9.34853 -3.57189 18.4173 3.55909 -20.051 52.3968 1.57526 -37.9634 0.541872 24.8065 0.19747 -3.138 -0.00191167 -6.66753 -2.84226 -0.0 0.0 -0.0 10.2781 -2.89649 -20.0494 -33.0528 10.9633 -60.1482 0.320914 9.03299 -0.0253495 37.6807 0.234156 4.72213 -0.575814 2.11704 4.76367 0.0 0.0 0.0 13.6096 21.174 4.10593 -10.0231 0.281153 1.51057 5.07343 -16.5852 -0.806682 7.85359 -0.0 -0.0 -0.0 0.0 -0.0 58.929 19.1074 -9.88648 -70.7021 3.45941 -9.59112 -7.4963 9.79189 -1.17375 25.5871 -0.0 -0.0 0.0 0.0 0.0 
2895.95711462 690.241 -1970.46948539 -12.2923465322 31.7120243129 5.59780116513 3.51292 0.303351 1.17487 3.51365 0.227981 1.19179 3.51808 0.0469178 1.21249 3.51611 0.237806 1.18987 -2.11885 1.75148 -0.443872 -2.11123 3.51623 -0.232849 -0.0 0.0 -0.0 8.86454 -3.77926 17.4083 3.90881 -21.1492 51.3736 1.85957 -42.6463 0.725936 24.7062 0.199418 -3.12535 0.051064 -8.8189 -3.40208 -0.0 0.0 -0.0 10.2242 -3.54499 -19.8931 -32.932 10.3502 -60.8791 0.30563 8.60938 -0.0230057 38.6732 0.282059 4.83966 -0.886311 -0.76248 5.59404 0.0 0.0 0.0 10.8845 21.5337 5.58206 -5.77374 0.194295 0.864424 4.64912 -16.6192 -0.740465 6.07645 -0.0 -0.0 -0.0 0.0 -0.0 62.0673 20.6914 -12.705 -64.2516 2.67615 -8.97659 -12.6472 5.5338 -1.95164 25.1459 -0.0 -0.0 0.0 0.0 0.0 
2872.82249413 683.325 -1992.81307703 -11.9254520462 30.7126298453 5.20697684045 3.42312 0.353947 1.38239 3.42415 0.265274 1.4021 3.43023 0.0501151 1.42609 3.4275 0.274689 1.40029 -1.49659 1.56034 -0.432176 -1.48967 3.15381 -0.261851 -0.0 0.0 -0.0 8.31466 -1.32886 16.2438 3.62764 -21.6246 51.3421 2.3108 -48.853 1.04963 23.6748 0.218182 -2.99493 0.167605 -11.5992 -3.80181 -0.0 0.0 -0.0 9.82412 -4.22715 -19.0436 -34.3336 9.49363 -60.4681 0.307464 8.66029 -0.0232811 38.8233 0.289479 4.85736 -1.00397 -3.80851 5.03318 0.0 0.0 0.0 8.02476 21.8913 5.27813 -2.47176 0.0938511 0.367695 4.35883 -16.1019 -0.692032 4.68006 -0.0 -0.0 -0.0 0.0 -0.0 62.6383 23.7087 -13.6792 -58.6985 2.06109 -8.38049 -17.217 2.55384 -2.63585 24.8518 -0.0 -0.0 0.0 0.0 0.0 
2856.98678865 686.683 -2008.66864863 -13.5121700986 30.0820706406 6.49850994249 4.01289 0.347365 1.34352 4.01386 0.261178 1.3629 4.01951 0.0662579 1.38611 4.01694 0.284316 1.35826 -0.67157 1.25993 -1.26312 -0.657612 3.27823 -1.20409 -0.0 0.0 -0.0 7.92415 -1.55119 15.4528 2.77628 -21.7724 51.2004 2.48612 -50.9159 1.18372 24.448 0.204337 -3.09273 0.254912 -13.4165 -3.98996 -0.0 0.0 -0.0 10.4569 -4.511 -20.2827 -33.5298 8.58877 -60.2282 0.268054 7.564 -0.0177196 39.6122 0.329244 4.95008 -1.30342 -8.61097 4.84142 0.0 0.0 0.0 5.65082 22.2584 6.44852 1.13904 -0.0485773 -0.168036 9.81656 -17.1901 -1.54144 1.4925 -0.0 -0.0 -0.0 0.0 -0.0 60.9504 27.072 -13.9557 -49.5753 1.18538 -7.28242 -19.8747 -1.15942 -3.01382 23.8924 -0.0 -0.0 0.0 0.0 0.0 
2817.9726335 674.214 -2042.09188786 -14.5030775077 27.3381020324 6.45211846412 4.68279 0.373058 1.39449 4.68382 0.283576 1.41539 4.69002 0.0978961 1.44019 4.68727 0.324097 1.40667 -0.752158 1.73266 -2.67119 -0.705908 5.26344 -2.65056 -0.0 0.0 -0.0 7.14618 1.40518 13.8743 1.68417 -21.6512 50.9784 2.90236 -55.1693 1.51656 24.6214 0.201051 -3.11463 0.35395 -15.4383 -4.18989 -0.0 0.0 -0.0 10.4263 -4.86474 -20.191 -35.2416 6.38244 -58.2764 0.294816 8.30911 -0.0214149 41.0256 0.403679 5.11482 -1.37772 -13.5146 3.08108 0.0 0.0 0.0 1.3035 21.71 8.50722 4.71074 -0.222452 -0.688314 20.4246 -18.8597 -3.09379 -1.67799 0.0 0.0 -0.0 0.0 -0.0 60.5284 30.0763 -13.8698 -35.1106 0.185359 -5.30181 -24.9964 -6.38613 -3.7622 20.4458 -0.0 -0.0 0.0 0.0 0.0 
2799.01605407 674.214 -2053.37316896 -15.3643809596 26.2076587982 6.65928250831 5.0541 0.359454 1.21689 5.05489 0.281298 1.2373 5.06026 0.12686 1.26251 5.05818 0.324643 1.22664 -0.949399 2.95691 -2.73315 -0.881017 7.50541 -2.56351 -0.0 0.0 -0.0 6.7731 1.66823 13.1427 2.08528 -22.0761 51.0124 2.93618 -55.4796 1.54438 25.536 0.182621 -3.23001 0.308786 -14.303 -4.00675 -0.0 0.0 -0.0 10.6953 -4.54357 -20.7582 -34.1497 6.24813 -57.6541 0.334505 9.40884 -0.0275274 41.9391 0.453946 5.2203 -1.53355 -15.0291 3.35562 0.0 0.0 0.0 -0.128502 21.6429 9.48533 5.71623 -0.277233 -0.832772 26.972 -19.6582 -3.95772 -2.95559 0.0 0.0 -0.0 0.0 -0.0 58.0988 31.234 -13.5737 -24.0884 -0.224745 -3.66258 -23.9997 -10.0781 -3.61102 17.3838 -0.0 -0.0 0.0 0.0 0.0 
2785.24771432 670.984 -2062.34246871 -15.1674285839 25.5651432275 6.07501405728 4.86765 0.376615 1.29459 4.86854 0.293481 1.31593 4.87453 0.124925 1.34245 4.87218 0.335354 1.30588 -1.57409 4.20217 -2.40859 -1.49417 9.48848 -2.02091 -0.0 0.0 -0.0 6.39215 1.77632 12.4013 1.81774 -22.3185 50.8035 2.9028 -55.1734 1.51693 25.823 0.176458 -3.26615 0.300474 -13.6683 -3.7907 -0.0 0.0 -0.0 10.7726 -4.26837 -20.9385 -33.4103 5.89842 -57.1533 0.363383 10.2047 -0.0324462 43.2358 0.52818 5.36865 -1.56931 -16.0816 3.08751 0.0 0.0 0.0 -1.12439 21.5424 10.0195 3.71106 -0.170515 -0.543778 32.494 -20.3925 -4.62234 -3.72521 0.0 0.0 -0.0 0.0 -0.0 57.0274 31.9795 -13.5428 -14.0018 -0.318861 -2.11976 -22.6197 -13.6889 -3.41543 14.7148 -0.0 -0.0 0.0 0.0 0.0 
2789.12565695 670.984 -2066.17001412 -15.0980291121 25.0221007311 5.91258577951 4.86765 0.376615 1.29459 4.86854 0.293481 1.31593 4.87453 0.124925 1.34245 4.87218 0.335354 1.30588 -1.57409 4.20217 -2.40859 -1.49417 9.48848 -2.02091 -0.0 0.0 -0.0 6.39215 1.77632 12.4013 1.81774 -22.3185 50.8035 2.9028 -55.1734 1.51693 25.823 0.176458 -3.26615 0.300474 -13.6683 -3.7907 -0.0 0.0 -0.0 10.7726 -4.26837 -20.9385 -33.4103 5.89842 -57.1533 0.363383 10.2047 -0.0324462 43.2358 0.52818 5.36865 -1.56931 -16.0816 3.08751 0.0 0.0 0.0 -1.12439 21.5424 10.0195 3.71106 -0.170515 -0.543778 32.494 -20.3925 -4.62234 -3.72521 0.0 0.0 -0.0 0.0 -0.0 57.0274 31.9795 -13.5428 -14.0018 -0.318861 -2.11976 -22.6197 -13.6889 -3.41543 14.7148 -0.0 -0.0 0.0 0.0 0.0 
2779.07407635 669.588 -2077.90765005 -14.6097830764 23.8600816707 5.44722079312 4.59591 0.344094 1.08155 4.59652 0.274579 1.10125 4.60134 0.127906 1.12773 4.59969 0.304394 1.09338 -2.09126 5.08183 -2.17762 -2.00423 10.9043 -1.61926 -0.0 0.0 -0.0 6.05384 1.69903 11.7448 1.7374 -22.5508 50.51 2.89776 -55.1267 1.51279 26.0234 0.172048 -3.29137 0.295113 -13.2256 -3.63712 -0.0 0.0 -0.0 10.7939 -4.22956 -20.9851 -32.9962 5.59193 -57.0187 0.383684 10.7618 -0.03614 44.1618 0.583248 5.47356 -1.5946 -16.8181 2.89947 0.0 0.0 0.0 -1.65046 21.4588 10.6492 2.61164 -0.116324 -0.383823 36.3869 -20.9459 -5.05208 -4.26434 0.0 0.0 -0.0 0.0 -0.0 55.4401 32.4669 -13.515 -6.95194 -0.223179 -1.04292 -21.497 -16.17 -3.26077 12.8978 -0.0 -0.0 0.0 0.0 0.0 
